Results
version=1
nRows=12
nColumns=55
inDegrees=yes
endheader
time	/jointset/boatJoint/bJoint_3/value	/jointset/boatJoint/bJoint_3/speed	/jointset/boatJoint/bJoint_4/value	/jointset/boatJoint/bJoint_4/speed	/jointset/seatJoint/seatpos/value	/jointset/seatJoint/seatpos/speed	/jointset/starboardlockJoint/slocangle/value	/jointset/starboardlockJoint/slocangle/speed	/jointset/starboardoarJoint/soarinout/value	/jointset/starboardoarJoint/soarinout/speed	/jointset/portlockJoint/plocangle/value	/jointset/portlockJoint/plocangle/speed	/jointset/portoarJoint/poarinout/value	/jointset/portoarJoint/poarinout/speed	/jointset/hipJoint/hipangle/value	/jointset/hipJoint/hipangle/speed	/jointset/knee_Joint/kneeangle/value	/jointset/knee_Joint/kneeangle/speed	/jointset/foot_Joint/footangle/value	/jointset/foot_Joint/footangle/speed	/jointset/lbackJoint/lbackangle/value	/jointset/lbackJoint/lbackangle/speed	/jointset/upper_arm_left_Joint/uarmleft_out/value	/jointset/upper_arm_left_Joint/uarmleft_out/speed	/jointset/upper_arm_left_Joint/uarmleft_trn/value	/jointset/upper_arm_left_Joint/uarmleft_trn/speed	/jointset/upper_arm_left_Joint/uarmleft_up/value	/jointset/upper_arm_left_Joint/uarmleft_up/speed	/jointset/lower_arm_left_Joint/se_inout/value	/jointset/lower_arm_left_Joint/se_inout/speed	/jointset/lower_arm_left_Joint/se_updown/value	/jointset/lower_arm_left_Joint/se_updown/speed	/jointset/handle_left_Joint/handleleft_out/value	/jointset/handle_left_Joint/handleleft_out/speed	/jointset/handle_left_Joint/handleleft_trn/value	/jointset/handle_left_Joint/handleleft_trn/speed	/jointset/handle_left_Joint/handleleft_up/value	/jointset/handle_left_Joint/handleleft_up/speed	/jointset/upper_arm_right_Joint/uarmright_out/value	/jointset/upper_arm_right_Joint/uarmright_out/speed	/jointset/upper_arm_right_Joint/uarmright_trn/value	/jointset/upper_arm_right_Joint/uarmright_trn/speed	/jointset/upper_arm_right_Joint/uarmright_up/value	/jointset/upper_arm_right_Joint/uarmright_up/speed	/jointset/lower_arm_right_Joint/pe_inout/value	/jointset/lower_arm_right_Joint/pe_inout/speed	/jointset/lower_arm_right_Joint/pe_updown/value	/jointset/lower_arm_right_Joint/pe_updown/speed	/jointset/handle_right_Joint/handleright_out/value	/jointset/handle_right_Joint/handleright_out/speed	/jointset/handle_right_Joint/handleright_trn/value	/jointset/handle_right_Joint/handleright_trn/speed	/jointset/handle_right_Joint/handleright_up/value	/jointset/handle_right_Joint/handleright_up/speed
      1.41362451	      1.19223456	     10.99298740	      2.16080846	      1.96118314	     -0.20432674	    -14.25840875	     64.05165648	    890.32290229	    -26.46328920	   -858.23630242	     12.29777837	    242.08831253	    -43.50753946	   1087.40413894	     55.77560604	  -1440.61110602	     76.93030971	   2821.43232014	     42.70591575	   1380.82121412	     90.46215001	    301.00044018	   -262.32742540	    620.61696464	    -38.32130140	   -879.81489710	    317.68155174	     46.89574833	   -108.43304572	   -835.93433340	   1061.50080566	   7162.17774822	    392.57590629	   -877.13964901	     52.05923209	  -6795.26476959	   -376.96980716	  -2339.61869813	   -342.81992474	   -991.21207530	   -150.28732148	    718.84181497	   -414.78902284	   1198.22103584	   -249.59015099	    377.53708439	     41.91947318	  -2458.28414499	   -100.50293894	  -2498.53106631	     26.90819204	  -1961.24511966	   1439.19799196	   1484.97513786
      1.41445448	      1.20152305	     11.38120052	      2.16248731	      2.08176516	     -0.21639750	    -14.81629455	     64.79802310	    906.65605415	    -27.16036883	   -817.68906016	     12.54392352	    350.56337490	    -42.59944605	   1100.42551417	     54.57290404	  -1456.14052034	     79.28831166	   2857.98404228	     43.86121569	   1401.84352194	     90.72258348	    326.23699964	   -261.25695776	    646.27790809	    -38.07190255	   -855.07444488	    318.56050303	    305.11122859	   -109.08620171	   -740.34943897	   1067.36504617	   6960.93269621	    390.36393524	   -811.75853946	     46.20999457	  -6859.57354050	   -374.97504004	  -2329.67556998	   -344.11823378	  -1069.75201770	   -149.45044573	    691.76878550	   -415.67074397	   1137.37316481	   -249.27567772	    382.64962084	     39.89214047	  -2427.35784590	   -101.64216400	  -2460.10452363	     26.00479681	  -1987.92553645	   1437.13508830	   1507.79575463
      1.41528445	      1.21111066	     11.71143475	      2.16425923	      2.18481725	     -0.22889746	    -15.28929571	     65.55386299	    912.90948644	    -27.81475437	   -756.00616514	     12.87866066	    455.31296354	    -41.68151515	   1111.19892973	     53.36100391	  -1462.61063684	     81.66960715	   2877.22187124	     45.03061106	   1414.61123439	     91.00298811	    348.95521437	   -260.21933343	    659.26579096	    -37.61492515	   -839.03991128	    319.36710400	    528.35626603	   -109.66673543	   -661.89048699	   1073.04316240	   6714.80485141	    388.64797135	   -746.24439064	     40.29987628	  -6873.44232320	   -373.41693839	  -2298.25377281	   -345.47957577	  -1143.15064828	   -148.66499750	    668.38643037	   -416.53168949	   1076.21662322	   -248.95102898	    402.00808304	     37.88955911	  -2398.71938648	   -102.76179415	  -2414.98144684	     25.12048392	  -2013.08718515	   1435.03990565	   1539.46768219
      1.41645430	      1.22502675	     12.05371182	      2.16688321	      2.29345932	     -0.24709086	    -15.77654796	     66.61792177	    902.26992935	    -28.63470613	   -641.18758199	     13.49356022	    593.95197400	    -40.37409493	   1123.51461823	     51.65251848	  -1454.87468909	     85.03619109	   2871.81389625	     46.68870957	   1416.93920716	     91.42714733	    374.83457718	   -258.82316789	    662.20549400	    -36.68068501	   -834.37418592	    320.39606699	    772.54800244	   -110.39418914	   -590.13683616	   1080.66472207	   6303.68351566	    386.81203089	   -657.76370699	     31.97737572	  -6806.60309014	   -371.70099445	  -2212.34748344	   -347.49298180	  -1240.27328589	   -147.63783861	    641.60547290	   -417.70408880	    989.99314633	   -248.45373808	    452.58993176	     35.10485188	  -2363.06764660	   -104.29506613	  -2337.23177389	     23.89273001	  -2047.22310269	   1432.03031797	   1600.32953360
      1.41762415	      1.23924657	     12.22677693	      2.16960566	      2.35204342	     -0.26571343	    -16.01716456	     67.65535170	    867.22111182	    -29.30656186	   -504.87519547	     14.26314191	    719.32974663	    -39.05377472	   1133.38184783	     49.96507970	  -1426.55861001	     88.37309952	   2826.26968106	     48.33817922	   1399.71107105	     91.87639139	    391.52281872	   -257.49968344	    656.04987543	    -35.49833523	   -850.18707102	    321.33264058	    924.21100999	   -111.06884410	   -572.97286343	   1087.76753465	   5829.93894736	    385.44814539	   -576.98835316	     23.80199949	  -6636.15287000	   -370.33124210	  -2072.11403646	   -349.60450727	  -1333.30502587	   -146.69425617	    620.87525993	   -418.82160978	    904.02371120	   -247.88221341	    528.50399755	     32.35819098	  -2333.81784594	   -105.75679613	  -2239.41557842	     22.66753915	  -2081.70798297	   1428.94977125	   1680.93388095
      1.41903966	      1.25655700	     12.18389008	      2.17294275	      2.34930414	     -0.28837998	    -15.93905584	     68.83395963	    792.29857158	    -29.89674949	   -328.37416741	     15.37689895	    850.36082737	    -37.44254993	   1142.65198444	     47.98588351	  -1365.01188902	     92.30339097	   2717.19855030	     50.28927448	   1352.18666128	     92.43665540	    397.35409950	   -255.96477814	    649.37247610	    -33.89053416	   -888.77324579	    322.40715560	    975.80274888	   -111.91177892	   -633.09728570	   1095.57312608	   5186.88924337	    384.23149597	   -491.27324590	     14.32223815	  -6284.63517729	   -368.91837150	  -1823.88966492	   -352.27780267	  -1445.81984908	   -145.65053026	    600.18562791	   -420.09102929	    799.90946273	   -247.05159240	    650.07975977	     29.07424333	  -2307.89045526	   -107.39350584	  -2088.89772189	     21.15703831	  -2127.50648868	   1425.11463655	   1804.75976608
      1.42000000	      1.26817532	     11.99005147	      2.17517859	      2.30091633	     -0.30356096	    -15.64393108	     69.56254930	    722.69383700	    -30.15511092	   -210.53393993	     16.23047417	    925.39121634	    -36.34296186	   1147.05168017	     46.70180629	  -1307.12919178	     94.86375441	   2610.79768272	     51.56556070	   1303.66849094	     92.81622648	    391.86841111	   -254.94006027	    650.94799326	    -32.78255875	   -919.32638952	    323.13669093	    927.64967829	   -112.56076918	   -725.34265771	   1100.32875302	   4712.27973189	    383.60998247	   -440.18770647	      8.27700769	  -5950.23002882	   -368.02509101	  -1605.28949502	   -354.16175812	  -1525.43414057	   -144.99807828	    585.67613818	   -420.89531333	    728.40885890	   -246.38111051	    748.13396614	     26.86386327	  -2296.20938728	   -108.39709853	  -1963.63428839	     20.09657742	  -2163.57368516	   1422.43525670	   1904.37486470
      1.42141551	      1.28486340	     11.58224474	      2.17835516	      2.17981246	     -0.32527417	    -15.02320876	     70.50636073	    611.53150859	    -30.34014832	    -55.45221229	     17.61061973	   1023.30367011	    -34.71884523	   1145.48966696	     44.91778518	  -1214.08523398	     98.43614295	   2437.55776360	     53.35392812	   1223.47252963	     93.35889544	    373.27897499	   -253.41472167	    671.17124892	    -31.24417548	   -960.71013576	    324.25496333	    794.22330300	   -113.70916818	   -899.47412528	   1106.51670283	   4050.11250523	    382.93748573	   -381.43910976	      0.08299123	  -5428.62536637	   -366.70827772	  -1267.48436404	   -357.03793560	  -1636.15738764	   -144.11662091	    556.25847934	   -421.99211683	    628.80972235	   -245.21542952	    898.09805728	     23.62558750	  -2277.87842840	   -109.68934695	  -1760.36932512	     18.45670707	  -2205.56240009	   1418.36429320	   2058.26661690
      1.42283102	      1.30095507	     11.15306719	      2.18132921	      2.01526412	     -0.34607015	    -14.35550607	     71.29674320	    506.50376073	    -30.32316554	     76.15787120	     19.12424119	   1114.32362436	    -33.10611597	   1131.11224978	     43.26252312	  -1125.59950752	    101.76829412	   2272.16238332	     55.03081723	   1146.56287580	     93.86871067	    345.61272713	   -251.83858767	    712.41070845	    -29.85824465	   -990.11146358	    325.43405283	    644.75378184	   -115.10994812	  -1079.65464128	   1111.84711238	   3499.10482044	    382.51688163	   -342.88796099	     -7.30680506	  -4968.90985308	   -365.31897179	   -964.35723245	   -360.01094701	  -1721.74786546	   -143.33532009	    515.35463354	   -422.99438805	    544.12334798	   -243.84021518	   1044.55086605	     20.41771022	  -2254.12682633	   -110.77188826	  -1553.90789659	     16.70811530	  -2215.76451198	   1414.18398071	   2207.15178767
      1.42424653	      1.31644144	     10.73083247	      2.18404108	      1.80970561	     -0.36591083	    -13.67859432	     71.94445501	    410.25743451	    -30.13218409	    191.53943657	     20.76277004	   1199.95833427	    -31.52212243	   1105.14470358	     41.72821436	  -1043.37578833	    104.87407387	   2118.10966018	     56.60228822	   1074.73387184	     94.33344879	    309.70678178	   -250.19067320	    768.59311512	    -28.63843696	  -1002.14790224	    326.66521720	    491.48932945	   -116.76312566	  -1254.54877011	   1116.47119220	   3050.82250381	    382.33234519	   -318.12724309	    -13.99082118	  -4572.12419524	   -363.80701609	   -703.87300814	   -363.04619436	  -1774.94821674	   -142.65976254	    464.58023618	   -423.91847878	    476.27968081	   -242.25910518	   1189.22493383	     17.24408024	  -2230.45337302	   -111.67315739	  -1349.51196096	     14.83325996	  -2192.34124636	   1409.94365354	   2348.81065419
      1.42566204	      1.33134638	     10.33390776	      2.18643398	      1.56481590	     -0.38480219	    -13.01750289	     72.46293327	    324.02266227	    -29.78552883	    297.09667398	     22.51912639	   1280.85883875	    -29.98205085	   1069.39792535	     40.30540667	   -968.11373392	    107.77081310	   1976.94404082	     58.07621976	   1008.83030689	     94.74190581	    266.18546721	   -248.45985259	    835.46418094	    -27.58689238	   -996.01020761	    327.93206066	    342.67315024	   -118.65547193	  -1416.56245146	   1120.52897693	   2697.76039470	    382.38414638	   -302.22391634	    -20.07178523	  -4239.99743747	   -362.14212828	   -491.68544176	   -366.10088789	  -1789.24759983	   -142.09546431	    405.70129009	   -424.78192651	    427.17295323	   -240.47392242	   1332.95727995	     14.10038301	  -2212.86348967	   -112.42587214	  -1151.36330794	     12.81564214	  -2133.93082912	   1405.69391920	   2480.97716577
      1.42752609	      1.35016337	      9.86704382	      2.18900646	      1.18454530	     -0.40829175	    -12.19615567	     72.97294296	    226.10037793	    -29.10739989	    430.08947692	     25.00064861	   1380.27813556	    -28.04124606	   1011.27660591	     38.58506258	   -879.69025800	    111.29787632	   1811.11872947	     59.88293890	    931.42847147	     95.17649251	    198.14932617	   -246.04222507	    936.29896957	    -26.44816316	   -963.85648516	    329.62507787	    162.53826182	   -121.47446624	  -1602.30107074	   1125.22602254	   2365.97778308	    382.82673549	   -288.27598522	    -27.33916193	  -3904.67675277	   -359.68607395	   -291.69241371	   -370.06861927	  -1739.31180898	   -141.53216805	    318.84682898	   -425.85913074	    394.51203479	   -237.81385125	   1520.78717941	      9.98311236	  -2209.39625461	   -113.24767847	   -904.43395907	      9.91784882	  -2002.36389449	   1400.16901750	   2636.17706751
